<svg width="9" height="14" viewBox="0 0 9 14" fill="none" xmlns="http://www.w3.org/2000/svg">
<path d="M5.70508 10.5352V5.66016H6.79492V12H5.75781L5.70508 10.5352ZM5.91016 9.19922L6.36133 9.1875C6.36133 9.60938 6.31641 10 6.22656 10.3594C6.14062 10.7148 6 11.0234 5.80469 11.2852C5.60938 11.5469 5.35352 11.752 5.03711 11.9004C4.7207 12.0449 4.33594 12.1172 3.88281 12.1172C3.57422 12.1172 3.29102 12.0723 3.0332 11.9824C2.7793 11.8926 2.56055 11.7539 2.37695 11.5664C2.19336 11.3789 2.05078 11.1348 1.94922 10.834C1.85156 10.5332 1.80273 10.1719 1.80273 9.75V5.66016H2.88672V9.76172C2.88672 10.0469 2.91797 10.2832 2.98047 10.4707C3.04688 10.6543 3.13477 10.8008 3.24414 10.9102C3.35742 11.0156 3.48242 11.0898 3.61914 11.1328C3.75977 11.1758 3.9043 11.1973 4.05273 11.1973C4.51367 11.1973 4.87891 11.1094 5.14844 10.9336C5.41797 10.7539 5.61133 10.5137 5.72852 10.2129C5.84961 9.9082 5.91016 9.57031 5.91016 9.19922Z" fill="black"/>
<line y1="13.5" x2="9" y2="13.5" stroke="black"/>
</svg>
